<svg xmlns="http://www.w3.org/2000/svg" xmlns:xlink="http://www.w3.org/1999/xlink" width="500" zoomAndPan="magnify" viewBox="0 0 375 374.999991" height="500" preserveAspectRatio="xMidYMid meet" version="1.2"><defs><clipPath id="9cc2a46915"><path d="M 27.722656 4 L 347.222656 4 L 347.222656 372.753906 L 27.722656 372.753906 Z M 27.722656 4 "/></clipPath></defs><g id="0774939461"><g clip-rule="nonzero" clip-path="url(#9cc2a46915)"><path style=" stroke:none;fill-rule:evenodd;fill:#ffffff;fill-opacity:1;" d="M 54.640625 276.914062 C 54.167969 276.984375 53.753906 276.992188 53.273438 276.9375 C 47.863281 276.3125 47.09375 269.660156 46.785156 265.097656 C 45.988281 265.320312 45.128906 265.371094 44.222656 265.203125 C 41.699219 264.734375 40.171875 262.84375 39.171875 260.640625 C 39.132812 260.558594 39.105469 260.488281 39.070312 260.40625 C 35.96875 252.542969 36.390625 243.039062 37.453125 234.789062 C 37.921875 231.15625 38.6875 227.816406 39.855469 224.347656 C 39.988281 223.953125 40.121094 223.5625 40.257812 223.167969 C 40.113281 223.160156 39.96875 223.144531 39.820312 223.125 C 35.296875 222.511719 34.085938 218.242188 34.023438 214.359375 C 34.023438 214.265625 34.023438 214.1875 34.027344 214.09375 C 34.355469 204.84375 38.253906 195.617188 43.621094 188.171875 C 44.226562 187.339844 44.839844 186.515625 45.460938 185.695312 C 46.589844 184.199219 47.832031 182.84375 49.066406 181.484375 C 48.855469 181.402344 48.644531 181.308594 48.433594 181.203125 C 45.40625 179.648438 44.5 176.429688 45.078125 173.265625 C 45.613281 170.304688 47.488281 166.628906 49.183594 164.136719 C 49.640625 163.464844 50.128906 162.828125 50.636719 162.203125 C 48.800781 161.113281 47.128906 160 45.386719 158.640625 C 45.335938 158.601562 45.292969 158.566406 45.242188 158.523438 C 43.941406 157.429688 42.6875 156.339844 41.511719 155.101562 C 32.6875 145.785156 27.722656 132.230469 27.917969 119.441406 C 27.933594 118.503906 27.972656 117.570312 28.066406 116.640625 C 28.9375 107.957031 30.972656 99.3125 36.359375 92.234375 C 36.382812 92.203125 36.40625 92.171875 36.433594 92.140625 C 38.824219 89.148438 41.1875 85.90625 43.945312 83.25 C 44.019531 83.175781 44.085938 83.117188 44.164062 83.050781 C 47.59375 80.109375 51.097656 77.792969 55.339844 76.175781 C 60.867188 74.070312 68.410156 73.0625 74.3125 73.359375 C 74.707031 73.378906 75.089844 73.425781 75.46875 73.476562 C 77.222656 71.582031 78.734375 70.097656 81.113281 68.648438 C 81.175781 68.609375 81.226562 68.578125 81.289062 68.542969 C 87.511719 65.085938 98.238281 62.679688 105.359375 62.296875 C 105.425781 62.292969 105.480469 62.289062 105.546875 62.289062 C 106.101562 62.28125 106.851562 62.320312 107.546875 62.328125 C 107.566406 62.253906 107.585938 62.179688 107.605469 62.117188 C 108.085938 60.347656 108.554688 58.578125 109.027344 56.808594 C 110.570312 51.0625 112.296875 45.339844 114.226562 39.710938 C 116.160156 34.066406 118.347656 28.253906 121.0625 22.929688 C 126.9375 11.402344 136.410156 5.484375 149.210938 4.429688 C 156.644531 3.816406 162.632812 5.203125 169.453125 7.96875 C 174.433594 9.988281 179.019531 12.269531 184.425781 13.003906 C 191.773438 14 197.863281 11.628906 204.476562 8.746094 C 216.023438 3.710938 227.589844 2.371094 239.320312 7.730469 C 239.378906 7.757812 239.429688 7.78125 239.488281 7.8125 L 240.199219 8.167969 C 251.539062 13.851562 256.761719 26.089844 260.445312 37.492188 C 262.730469 44.5625 264.917969 51.679688 266.921875 58.832031 C 267.195312 59.804688 267.410156 60.777344 267.617188 61.761719 C 267.640625 61.859375 267.664062 61.976562 267.6875 62.09375 C 267.800781 62.113281 267.910156 62.128906 268.003906 62.144531 C 274.609375 62.855469 281.125 63.21875 287.484375 65.386719 C 290.605469 66.453125 293.507812 67.644531 296.148438 69.667969 C 296.191406 69.703125 296.230469 69.730469 296.273438 69.765625 L 296.722656 70.132812 C 297.6875 70.921875 298.460938 71.804688 299.265625 72.742188 C 299.433594 72.9375 299.738281 73.3125 299.988281 73.546875 C 300.980469 73.585938 302.167969 73.503906 303.105469 73.472656 C 304.550781 73.421875 306.015625 73.332031 307.457031 73.328125 C 307.507812 73.328125 307.546875 73.328125 307.597656 73.328125 C 319.003906 73.589844 329.699219 80.015625 336.683594 88.8125 C 336.78125 88.933594 336.859375 89.042969 336.945312 89.171875 L 340.75 94.925781 C 340.824219 95.042969 340.886719 95.144531 340.953125 95.265625 C 341.617188 96.457031 342.246094 97.6875 342.800781 98.933594 C 342.8125 98.964844 342.824219 98.988281 342.835938 99.019531 C 343.105469 99.648438 343.28125 100.261719 343.5 100.902344 C 345.847656 107.8125 347.140625 113.167969 347.199219 120.535156 C 347.222656 123.359375 346.746094 125.988281 346.363281 128.757812 C 345.144531 137.582031 340.574219 147.042969 334.535156 153.582031 C 332.640625 155.628906 331.027344 157.242188 328.855469 159.007812 C 328.738281 159.101562 328.632812 159.179688 328.507812 159.265625 C 327.839844 159.722656 327.171875 160.179688 326.496094 160.628906 C 326.429688 160.671875 326.375 160.707031 326.3125 160.746094 L 325.300781 161.359375 C 325.234375 161.398438 325.175781 161.433594 325.109375 161.46875 C 324.753906 161.664062 324.316406 161.859375 323.867188 162.058594 C 323.925781 162.152344 323.980469 162.238281 324.03125 162.308594 C 326.140625 165.496094 330.214844 172.035156 330.367188 175.714844 C 330.484375 178.460938 328.882812 180.738281 326.460938 181.65625 C 327.210938 182.519531 327.875 183.257812 328.308594 183.738281 C 328.429688 183.875 328.53125 183.992188 328.636719 184.136719 C 329.9375 185.898438 331.179688 187.6875 332.316406 189.558594 C 334.78125 193.609375 337.050781 197.699219 338.609375 202.199219 C 340.078125 206.445312 341.839844 215.6875 339.917969 219.742188 C 338.941406 221.804688 337.03125 223.054688 334.886719 223.195312 C 335.457031 224.949219 336.019531 226.703125 336.5 228.476562 C 337.507812 232.207031 337.984375 235.8125 338.152344 239.671875 C 338.152344 239.6875 338.152344 239.703125 338.152344 239.71875 L 338.183594 240.625 C 338.253906 242.605469 338.308594 244.582031 338.269531 246.5625 C 338.269531 246.605469 338.265625 246.636719 338.265625 246.675781 C 338.121094 250.121094 337.667969 253.917969 336.914062 257.277344 C 336.90625 257.324219 336.894531 257.359375 336.882812 257.402344 L 336.53125 258.808594 C 336.207031 260.09375 335.761719 261.390625 334.988281 262.476562 C 333.425781 264.664062 330.734375 265.609375 328.207031 264.65625 C 328.09375 266.015625 327.933594 267.359375 327.703125 268.652344 C 327.222656 271.34375 326.304688 274.097656 323.667969 275.417969 C 322.5625 275.96875 321.457031 276.136719 320.398438 276.003906 C 318.964844 288.832031 316.003906 297.132812 307.332031 307.8125 C 307.265625 307.894531 307.207031 307.964844 307.136719 308.042969 C 306.226562 309.039062 305.21875 310.074219 304.113281 310.851562 C 302.003906 312.339844 299.386719 312.769531 297.117188 311.289062 C 296.601562 310.953125 296.179688 310.574219 295.832031 310.160156 C 294.527344 311.160156 293.035156 311.820312 291.339844 311.742188 C 289.386719 315.773438 287.5625 319.386719 283.933594 322.800781 C 282.605469 324.046875 281.054688 325.324219 279.328125 325.960938 C 278.179688 326.386719 276.988281 326.5 275.875 326.304688 C 274.804688 328.234375 273.730469 330.167969 272.535156 331.941406 C 270.136719 335.503906 266.992188 338.367188 263.753906 341.148438 C 262.320312 342.382812 260.53125 343.859375 258.777344 344.59375 C 256.144531 345.695312 253.40625 344.988281 251.855469 343.082031 C 246.175781 349.457031 240.226562 353.5625 231.660156 356.832031 C 229.613281 357.617188 227.179688 358.402344 224.96875 358.035156 C 222.601562 357.644531 220.953125 356.117188 220.296875 354.160156 C 217.921875 356.1875 215.5 358.167969 212.84375 359.847656 C 211.1875 360.894531 209.183594 362.070312 207.261719 362.503906 C 204.570312 363.109375 201.945312 362.128906 200.601562 359.957031 C 199.917969 360.625 199.257812 361.359375 198.589844 362.183594 C 196.574219 364.667969 194.953125 368.230469 192.574219 370.234375 C 190.203125 372.230469 187.1875 372.632812 184.402344 371.210938 C 182.15625 370.066406 180.367188 367.871094 178.929688 365.851562 C 177.617188 364.015625 176.460938 362.359375 175.132812 360.859375 C 173.707031 363.265625 170.582031 364.328125 167.367188 363.082031 C 165.488281 362.355469 163.5625 361.011719 161.945312 359.816406 C 159.828125 358.253906 157.828125 356.578125 155.839844 354.867188 C 155.035156 356.863281 153.117188 358.230469 150.804688 358.453125 C 145.105469 359.007812 136.296875 353.695312 131.457031 350.683594 C 131.367188 350.628906 131.292969 350.582031 131.207031 350.519531 C 128.277344 348.457031 125.644531 346.027344 123.238281 343.375 C 123.03125 343.582031 122.804688 343.773438 122.554688 343.953125 C 120.335938 345.558594 117.804688 345.160156 115.519531 344.050781 C 109.199219 340.976562 103.90625 334.230469 100.023438 328.101562 C 98.65625 328.257812 97.214844 327.949219 95.886719 327.265625 C 90.867188 324.691406 86.402344 317.476562 83.511719 311.191406 C 82.679688 311.199219 81.808594 311.042969 80.933594 310.699219 C 80.539062 310.542969 80.160156 310.359375 79.796875 310.152344 C 78.042969 312.578125 74.667969 313.332031 71.242188 311.1875 C 65.992188 307.902344 61.121094 298.507812 58.824219 292.78125 C 58.792969 292.707031 58.769531 292.644531 58.742188 292.566406 C 57.652344 289.464844 56.609375 286.351562 55.828125 283.15625 C 55.320312 281.070312 54.914062 279.011719 54.640625 276.914062 Z M 54.640625 276.914062 "/></g><path style=" stroke:none;fill-rule:evenodd;fill:#000000;fill-opacity:1;" d="M 182.257812 322.859375 C 184.90625 324.003906 191.292969 335.386719 186.015625 329.449219 C 185.582031 328.960938 180.464844 322.78125 182.257812 322.859375 Z M 80.953125 212.011719 C 82.488281 210.761719 84.257812 209.3125 83.5 207.164062 C 80.515625 207.003906 77.054688 212.769531 78.046875 213.378906 C 78.671875 213.761719 80.488281 212.371094 80.953125 212.011719 Z M 270.960938 231.097656 C 269.382812 227.179688 262.917969 223.128906 264.238281 226.785156 C 265.132812 229.265625 271.609375 235.050781 270.960938 231.097656 Z M 100.996094 234.832031 C 103.152344 233.386719 105.5625 230.859375 105.539062 228.089844 C 105.511719 224.914062 101.207031 229.433594 100.542969 230.3125 C 99.988281 231.199219 95.953125 237.929688 100 235.453125 L 100.710938 235.019531 Z M 103.085938 140.511719 C 101.210938 143.339844 106.199219 140.519531 106.976562 140.175781 C 110.113281 138.851562 111.835938 138.519531 115.0625 137.746094 C 120.675781 136.242188 112.527344 135.941406 111.195312 136.050781 C 107.570312 136.351562 105.296875 137.65625 103.085938 140.511719 Z M 271.121094 139.628906 C 267.730469 136.75 264.96875 135.480469 260.449219 135.886719 C 258.308594 136.121094 255.9375 136.800781 259.589844 137.753906 C 262.929688 138.625 264.597656 139.167969 267.789062 140.476562 C 269.6875 141.253906 275.988281 144.105469 271.121094 139.628906 Z M 89.160156 217.394531 C 90.375 214.15625 89.40625 214.871094 87.28125 216.804688 C 86.054688 218.050781 79.691406 225.316406 82.238281 226.785156 C 83.515625 227.523438 86.085938 224.683594 86.847656 223.796875 C 87.785156 222.449219 88.238281 219.789062 88.890625 218.0625 Z M 129.75 125.710938 C 137.074219 126.28125 127.222656 122.40625 125.609375 122 C 122.867188 121.503906 117.1875 121.027344 115.390625 123.671875 C 113.601562 126.300781 121.464844 125.292969 122.488281 125.222656 C 124.902344 125.242188 127.34375 125.507812 129.75 125.710938 Z M 241.242188 125.097656 C 239.859375 126.578125 243.292969 125.976562 243.871094 125.894531 C 249.496094 125.179688 253 125.292969 258.59375 125.59375 C 262.996094 125.742188 261.296875 124.535156 258.652344 123.125 C 254.46875 120.890625 250.355469 121.605469 245.96875 122.667969 C 244.203125 123.164062 242.574219 123.800781 241.242188 125.097656 Z M 237.214844 139.945312 L 241.34375 140.257812 C 240.488281 137.738281 234.574219 135.855469 232.265625 135.527344 C 227.949219 134.910156 224.347656 135.914062 221.011719 138.71875 C 218.933594 140.5625 218.691406 140.9375 217.351562 143.0625 L 215.980469 145.054688 C 215.546875 146.390625 216.574219 145.160156 218.621094 144.332031 C 223.960938 142.175781 231.09375 139.40625 237.214844 139.945312 Z M 143.722656 135.265625 C 141.605469 135.5 135.96875 136.871094 135.003906 138.839844 C 134.128906 140.628906 139.523438 140.101562 140.457031 140.128906 C 146.988281 140.492188 150.226562 141.914062 156.101562 144.335938 C 159.625 145.785156 158.933594 144.597656 157.136719 142.300781 C 155.066406 139.644531 153.011719 137.472656 149.851562 136.152344 L 149.394531 135.972656 C 147.46875 135.277344 145.746094 135.160156 143.722656 135.265625 Z M 121.15625 256.027344 C 121.960938 251.558594 125.261719 239.175781 119.804688 252.0625 C 115.960938 261.214844 114.957031 268.664062 116.207031 278.542969 C 116.757812 282.886719 117.777344 287.460938 119.851562 291.347656 C 121.910156 295.097656 121.625 287.445312 121.652344 286.527344 C 121.835938 281.210938 122.214844 278.535156 121.332031 273.105469 C 120.382812 267.308594 120.199219 261.84375 121.15625 256.027344 Z M 120.394531 172.101562 C 117.507812 175.359375 114.347656 178.578125 111.535156 181.835938 C 109.941406 183.683594 108.410156 186.371094 110.648438 188.4375 C 113.484375 191.0625 117.625 185.207031 119.46875 183.285156 C 121.671875 180.992188 134 169.160156 134.445312 167.347656 C 135.085938 164.742188 128.863281 165.441406 127.457031 165.839844 C 126.632812 166.074219 126.160156 166.300781 125.4375 166.746094 C 123.566406 168.027344 121.917969 170.375 120.394531 172.101562 Z M 217.914062 182.109375 C 216.25 183.929688 214.605469 186.199219 217.085938 188.234375 C 220.1875 190.785156 223.574219 186.320312 225.507812 184.199219 C 229.617188 179.671875 233.582031 175.355469 238.097656 171.214844 C 246.539062 163.472656 234.066406 165.042969 232.007812 166.871094 C 230.464844 168.242188 228.804688 170.339844 227.367188 171.910156 C 224.203125 175.296875 221.039062 178.6875 217.914062 182.109375 Z M 196.878906 282.121094 C 197.105469 281.265625 197.929688 282.523438 198.203125 282.851562 C 198.679688 283.414062 202.609375 288.136719 202.457031 285.039062 L 202.367188 284.335938 L 202.222656 283.511719 C 202.132812 283.085938 201.253906 280.175781 202.496094 280.695312 C 204.226562 281.65625 209.644531 287.226562 206.777344 281.628906 C 205.238281 278.769531 202.140625 275.753906 199.183594 274.394531 C 198.984375 274.304688 198.785156 274.222656 198.582031 274.140625 C 197.453125 273.710938 196.75 273.359375 195.492188 273.097656 C 185.644531 271.570312 172.707031 271.957031 168.042969 282.578125 C 166.054688 287.394531 172.765625 278.085938 173.023438 281.542969 L 173.015625 282.039062 C 172.5625 287.121094 172.574219 285.699219 175.933594 283.117188 C 178.890625 280.851562 177.523438 285.046875 178.71875 286.203125 C 180.152344 285.679688 181.015625 281.53125 182.667969 281.988281 L 182.863281 282.230469 L 183.015625 282.65625 L 183.105469 283.171875 L 183.160156 283.820312 C 183.203125 284.730469 182.875 287.789062 183.289062 288.351562 C 183.671875 288.46875 184.644531 286.316406 184.753906 286.09375 C 185.027344 285.515625 186.808594 281.125 187.839844 281.867188 C 188.347656 282.230469 189.496094 285.4375 189.96875 286.304688 C 190.183594 286.695312 190.382812 286.988281 190.632812 287.355469 C 191.621094 288.714844 191.597656 286.957031 191.601562 286.242188 L 191.578125 285.128906 C 191.460938 282.847656 191.261719 279.644531 193.867188 283.292969 C 195.707031 286.023438 196.289062 287.863281 196.78125 283.136719 L 196.851562 282.3125 Z M 256.214844 169.539062 C 257.097656 168.707031 257.710938 167.839844 258.90625 167.839844 C 261.417969 167.839844 256.660156 172.542969 256.132812 173.070312 C 255.421875 173.777344 254.859375 174.28125 254.210938 175.023438 C 250.863281 178.863281 247.589844 181.351562 244.742188 184.921875 C 242.324219 187.785156 239.476562 190.035156 236.96875 192.929688 C 236.082031 193.957031 231.03125 199.808594 230.066406 199.71875 C 228.921875 199.613281 229.976562 196.800781 230.347656 196.175781 C 231.5 194.226562 234.347656 191.671875 236.027344 190.007812 C 240.261719 185.714844 244.492188 181.425781 248.726562 177.132812 C 251.222656 174.601562 253.71875 172.070312 256.214844 169.539062 Z M 268.710938 191.851562 C 268.914062 190.667969 269.097656 190.574219 269.238281 189.277344 C 270.289062 179.609375 272.117188 167.011719 259.996094 164.164062 C 258.707031 163.855469 254.972656 162.671875 253.773438 163.230469 C 252.738281 163.710938 243.035156 174.082031 241.390625 175.785156 C 235.011719 182.402344 228.316406 189.035156 222.105469 195.773438 C 218.628906 199.550781 219.773438 200.335938 223.65625 203.355469 C 231.625 209.433594 238.460938 209.554688 248.066406 209.414062 C 259.777344 209.238281 266.601562 203.339844 268.710938 191.851562 Z M 176.289062 333.074219 C 173.03125 330.011719 167.011719 322.253906 166.953125 317.734375 C 166.910156 314.351562 171.066406 320.195312 171.617188 320.894531 C 172.34375 321.816406 182.902344 334.972656 179.800781 335.058594 C 178.90625 335.082031 176.996094 333.660156 176.289062 333.074219 Z M 209.785156 273.007812 C 216.023438 275.597656 220.746094 274.898438 226.675781 271.941406 C 229.042969 270.835938 228.554688 271.910156 228.070312 273.964844 C 226.949219 278.605469 225.222656 283.289062 221.820312 286.773438 C 219.175781 289.476562 219.59375 286.339844 218.726562 286.121094 C 218.308594 286.015625 217.1875 290.253906 217.027344 290.734375 C 216.167969 293.363281 214.789062 297.546875 212.601562 299.320312 C 211.84375 299.859375 211.960938 298.933594 211.917969 298.054688 C 211.886719 297.460938 211.742188 291.199219 209.875 292.925781 C 208.625 294.082031 207.691406 299.546875 206.042969 302.097656 C 204.960938 303.777344 203.558594 305.238281 202.179688 306.675781 C 195.65625 312.992188 199.066406 306.816406 200.277344 302.84375 C 200.722656 301.316406 201.863281 296.238281 199.964844 295.386719 C 198.542969 294.746094 196.476562 300.34375 196.027344 301.324219 C 195.148438 303.242188 193.886719 306.289062 191.796875 307.125 L 191.425781 307.207031 L 190.949219 307.128906 L 190.464844 306.894531 L 189.957031 306.476562 C 186.9375 303.664062 187.027344 305.390625 184.199219 307.046875 C 182.101562 308.089844 181.285156 306.695312 180.328125 304.972656 C 178.792969 302.171875 177.722656 299.199219 176.253906 296.53125 C 172.957031 290.542969 174.800781 300.675781 175.09375 301.945312 C 176.804688 309.476562 176.476562 311.582031 170.589844 304.4375 C 167.84375 301.050781 166.800781 299.078125 165.886719 294.800781 C 165.695312 293.90625 165.3125 291.625 164.464844 291.191406 L 164.304688 291.261719 C 163.441406 291.984375 163.292969 295.460938 163.3125 296.585938 C 163.382812 300.050781 162.984375 301.167969 160.722656 297.589844 C 158.117188 293.289062 158.179688 292.871094 156.917969 288.164062 C 155.679688 283.5625 155.792969 289.871094 152.269531 286.273438 C 150.015625 283.972656 147.417969 278.054688 146.753906 274.878906 C 146.546875 273.886719 146.453125 273.046875 146.460938 272.03125 C 146.558594 270.246094 147.722656 271.363281 148.636719 271.984375 C 151.988281 274.160156 154.578125 274.761719 158.570312 274.480469 C 159.773438 274.398438 160.921875 274.222656 162.105469 274.007812 C 166.84375 272.953125 170.425781 269.90625 175.277344 268.371094 C 180.527344 266.714844 185.457031 266.914062 190.886719 267.042969 C 199.25 267.238281 202.433594 269.179688 209.785156 273.007812 Z M 184.800781 216.90625 C 178.566406 216.796875 175.257812 216.132812 170.519531 220.894531 C 168.988281 222.429688 167.070312 224.199219 166.988281 220.480469 C 166.867188 215.097656 173.910156 211.753906 178.300781 210.625 C 181.453125 209.8125 184.648438 209.464844 187.898438 209.417969 C 191.554688 209.585938 197.175781 210.753906 199.472656 213.859375 C 201.484375 216.574219 196.394531 216.152344 194.84375 216.296875 C 192.816406 216.488281 191.015625 216.871094 188.925781 216.972656 C 187.554688 216.972656 186.175781 216.914062 184.800781 216.90625 Z M 164.289062 238.710938 C 168.261719 245.363281 173.347656 251.113281 181.402344 252.300781 C 184.144531 252.703125 184.609375 253.277344 183.578125 256.046875 C 181.671875 261.183594 176.195312 260.746094 171.632812 262.269531 C 165.113281 264.449219 163.550781 267.144531 155.730469 267.261719 C 151.175781 267.332031 147.785156 265.003906 146.605469 260.59375 C 145.792969 257.570312 146.222656 255.214844 145.816406 252.339844 C 145.316406 248.839844 143.832031 253.042969 142.234375 252.390625 C 141.136719 251.941406 140.917969 246.726562 140.941406 245.5625 C 141.503906 238.441406 143.539062 235.71875 147.617188 230.207031 C 151.875 224.453125 144.21875 230.597656 146.632812 223.585938 C 147.738281 220.375 150.640625 217.121094 153.273438 215.035156 C 153.519531 214.863281 153.769531 214.695312 154.019531 214.527344 C 155.316406 213.660156 156.257812 213 157.503906 212.074219 L 159.613281 210.308594 C 159.652344 210.273438 159.714844 210.226562 159.753906 210.191406 C 162.386719 207.695312 164.175781 205.894531 166.304688 202.921875 C 168.867188 199.1875 170.523438 195.644531 172.4375 191.582031 L 172.839844 190.738281 C 173.070312 190.285156 173.128906 190.175781 173.316406 189.667969 L 173.742188 188.542969 C 176.132812 182.976562 176.039062 177.367188 182.238281 175.605469 C 185.667969 174.628906 190.546875 174.378906 193.960938 175.71875 C 198.785156 177.613281 199.542969 183.132812 201.609375 188.730469 C 201.929688 189.59375 202.171875 189.996094 202.542969 190.894531 C 205.054688 196.925781 208.164062 202.601562 212.625 207.414062 C 216.269531 211.175781 218.375 212.566406 222.554688 215.523438 C 224.273438 217.226562 230.160156 224.605469 228.199219 226.921875 C 226.824219 228.550781 222.753906 224.238281 228.535156 233.046875 C 231.917969 238.199219 232.582031 240.476562 233.433594 246.527344 C 233.621094 247.988281 234.699219 255.089844 231.28125 252.269531 C 229.035156 250.417969 228.289062 248.996094 228.605469 253.921875 C 228.976562 259.703125 228.625 265.21875 221.902344 266.84375 C 218.222656 267.738281 214.1875 266.773438 210.789062 265.285156 C 206.957031 263.351562 204.195312 261.867188 199.933594 260.910156 C 196.378906 260.140625 192.871094 259.625 191.871094 255.480469 C 191.015625 251.921875 194.703125 252.652344 197.226562 251.78125 C 198.160156 251.460938 199.050781 251.0625 199.949219 250.652344 C 206.675781 247.207031 211.035156 241.667969 213.117188 234.453125 C 215.140625 227.433594 214.21875 220.539062 209.796875 214.640625 C 209.003906 213.644531 208.183594 212.773438 207.28125 211.878906 C 201.449219 206.53125 192.3125 204.742188 184.621094 205.296875 C 173.320312 206.289062 163.8125 212.480469 161.941406 224.277344 C 161.824219 225.273438 161.785156 226.199219 161.769531 227.199219 C 161.808594 231.289062 162.445312 235.027344 164.289062 238.710938 Z M 256.828125 161.652344 C 263.625 162.164062 270.335938 166.542969 271.496094 173.578125 C 272.089844 177.195312 271.65625 181.875 271.566406 185.40625 C 271.488281 188.378906 270.230469 194.375 269.136719 197.441406 C 266.460938 204.972656 261.414062 208.953125 253.726562 210.695312 C 246.527344 212.035156 237.632812 211.886719 230.707031 209.359375 C 224.949219 207.253906 220.550781 203.824219 216.867188 198.953125 L 216.605469 198.5625 C 215.773438 197.28125 215.035156 195.960938 214.300781 194.625 C 212.785156 191.839844 211.992188 189.460938 211.226562 186.390625 C 210.183594 182.097656 209.148438 174.054688 210.929688 169.914062 C 212.746094 165.691406 216.992188 164.242188 221.175781 163.414062 L 227.296875 162.308594 C 231.007812 161.699219 234.78125 161.582031 238.546875 161.296875 C 242.523438 160.996094 247.210938 161.339844 251.253906 161.46875 C 253.113281 161.53125 254.96875 161.589844 256.828125 161.652344 Z M 128.445312 190.757812 C 129.972656 189.230469 131.308594 187.894531 132.835938 186.367188 C 139.078125 179.652344 145.332031 173.167969 151.976562 166.84375 C 156.054688 162.960938 158.28125 164.175781 153.480469 168.953125 C 150.382812 172.039062 147.316406 175.152344 144.265625 178.285156 L 143.9375 178.621094 C 143.023438 179.535156 142.691406 179.929688 141.863281 180.933594 L 135.042969 187.800781 C 134.210938 188.792969 133.878906 189.199219 132.964844 190.113281 C 131.582031 191.523438 122.902344 200.703125 122.183594 200.914062 C 120.898438 201.289062 122.113281 197.59375 122.398438 197.039062 C 123.402344 195.113281 126.671875 192.453125 128.445312 190.757812 Z M 95.898438 165.65625 C 92.371094 164.273438 97.535156 161.503906 99.855469 163.445312 C 101.066406 164.460938 99.941406 165.480469 98.617188 165.726562 C 97.644531 165.90625 96.855469 165.84375 95.898438 165.65625 Z M 279.304688 165.773438 C 278.5 165.773438 275.171875 166.109375 275.171875 164.738281 C 275.171875 162.375 279.25 162.582031 280.355469 163.429688 C 281.050781 163.964844 280.699219 163.699219 281.109375 164.480469 C 280.6875 165.28125 280.546875 165.773438 279.304688 165.773438 Z M 147.984375 205.910156 C 155.441406 201.957031 155.945312 200.414062 160.285156 193.589844 C 163.632812 188.320312 160.300781 195.851562 159.613281 197.046875 C 158.1875 199.53125 156.316406 201.589844 154.292969 203.59375 C 150.097656 207.488281 147.199219 208.730469 141.730469 210.242188 C 129.957031 212.835938 115.5 212.332031 108.449219 200.941406 C 106.605469 197.871094 105.777344 194.46875 105.089844 190.988281 C 104.113281 185.296875 103.261719 174.609375 105.65625 169.363281 C 107.054688 166.503906 109.371094 164.949219 112.167969 163.628906 C 122.082031 160.40625 132.929688 160.980469 143.210938 161.703125 C 148.113281 162.300781 146.5 163.492188 143.765625 166.117188 L 143.324219 166.542969 C 139.855469 169.941406 136.457031 173.464844 133.183594 177.050781 C 131.390625 179.042969 129.855469 180.628906 127.957031 182.527344 C 123.652344 186.835938 119.457031 191.378906 115.183594 195.742188 C 111.609375 199.378906 109.871094 202.515625 115 205.789062 C 118.109375 207.773438 122.910156 208.992188 126.582031 209.316406 C 131.488281 209.695312 137.765625 209.476562 142.511719 208.140625 C 144.421875 207.550781 146.183594 206.773438 147.984375 205.910156 Z M 209.082031 117.75 C 212 116.054688 218.9375 113.644531 222.496094 113.347656 C 222.273438 113.96875 222.5 113.542969 222.054688 113.933594 C 221.921875 114.050781 221.46875 114.308594 221.265625 114.4375 C 220.667969 114.808594 220.296875 115.097656 219.707031 115.460938 C 219.054688 115.867188 218.894531 115.871094 218.304688 116.382812 L 215.269531 119.027344 C 215.226562 119.0625 215.167969 119.109375 215.125 119.144531 C 213.5 120.507812 212.066406 122.171875 210.683594 123.738281 C 208.40625 126.335938 207.136719 128.007812 205.234375 130.886719 C 204.386719 132.171875 203.816406 132.488281 203.515625 134.097656 C 205.402344 133.074219 207.460938 131.550781 209.273438 130.332031 C 211.390625 129.085938 213.308594 127.917969 215.320312 126.570312 C 216.394531 125.855469 217.152344 125.132812 218.105469 124.449219 C 224.011719 120.234375 226.992188 118.433594 233.722656 115.535156 C 234.363281 115.261719 233.882812 115.429688 234.445312 115.226562 L 237.363281 114.269531 C 241.003906 113.238281 259.65625 108.285156 261.929688 110.929688 C 263.316406 112.546875 253.699219 114.335938 255.304688 115.574219 C 256.183594 116.246094 263.519531 115.710938 265.3125 115.765625 C 270.300781 115.925781 275.191406 116.785156 280.039062 117.929688 C 283.066406 118.753906 285.914062 119.835938 288.371094 121.835938 C 290.183594 123.660156 285.429688 123.019531 284.65625 122.96875 C 283.476562 122.890625 268.605469 122.683594 270.246094 124.214844 L 270.464844 124.371094 C 273.230469 125.96875 281.636719 127.523438 285.511719 129.03125 C 288.824219 130.320312 291.933594 132.074219 294.917969 133.984375 C 295.714844 134.542969 303.355469 139.84375 301.953125 140.949219 C 301.160156 141.578125 295.40625 138.789062 293.886719 138.328125 C 293.292969 138.148438 275.460938 132.59375 281.699219 137.277344 C 285.886719 140.316406 290.527344 142.640625 294.859375 145.710938 C 299.851562 149.25 305.066406 153.433594 308.457031 158.585938 C 310.917969 162.496094 304.535156 158.328125 303.78125 157.824219 C 302.46875 156.953125 284.429688 145.644531 289.453125 152.082031 C 292.515625 156.003906 297.75 160.355469 301.375 164.054688 C 301.675781 164.363281 301.972656 164.671875 302.269531 164.984375 C 304.738281 167.59375 307.167969 170.445312 308.5625 173.792969 C 310.675781 179.089844 303.609375 173.707031 302.21875 172.804688 C 301.710938 172.476562 293.425781 167.007812 293.472656 168.660156 L 293.523438 168.886719 C 294.46875 171.660156 301.25 179.300781 303.714844 181.679688 C 305.910156 183.800781 308.1875 185.839844 310.390625 187.957031 C 313.515625 191.054688 320.265625 198.222656 321.1875 202.425781 C 321.234375 204.070312 320.386719 203.339844 319.316406 202.511719 C 318.320312 201.738281 317.371094 200.789062 316.4375 199.929688 C 314.730469 198.53125 295.730469 182.757812 305.742188 194.785156 C 307.980469 197.492188 317.527344 209.132812 316 212.253906 C 314.925781 213.671875 309.441406 206.304688 308.675781 205.394531 C 304.730469 201.121094 300.730469 197.671875 296.003906 194.292969 C 294.535156 193.320312 289.363281 190.316406 292.6875 194.585938 C 294.917969 197.449219 297.570312 199.792969 299.828125 202.691406 C 305.429688 210.414062 312.957031 223.496094 312.71875 233.234375 C 312.605469 237.820312 310.113281 231.175781 309.453125 229.976562 C 307.367188 226.183594 304.648438 222.558594 302.132812 219.027344 L 301.742188 218.476562 C 301.710938 218.4375 301.660156 218.378906 301.625 218.335938 L 301.390625 218.058594 C 301.355469 218.015625 301.308594 217.957031 301.273438 217.914062 L 300.625 217.011719 C 297.769531 213.382812 291.015625 205.957031 287.136719 203.800781 C 283.613281 201.835938 290.472656 210.226562 290.71875 210.558594 C 291.160156 211.207031 291.585938 211.863281 292.007812 212.527344 C 294.066406 216.300781 301.507812 232.152344 299.867188 235.746094 C 298.996094 237.648438 295.53125 229.835938 295.269531 229.3125 C 293.953125 226.691406 285.492188 212.785156 283.285156 213.148438 C 281.769531 213.394531 287.5 222.449219 288.183594 223.828125 C 293.496094 234.542969 296.601562 245.746094 294.949219 257.78125 C 293.660156 267.160156 292.082031 253.15625 291.675781 251.523438 C 290.167969 245.464844 285.644531 233.316406 280.820312 229.386719 C 277.347656 226.5625 282.238281 237.835938 282.460938 238.398438 C 286.613281 250.425781 288.46875 270.640625 282.515625 282.203125 C 278.859375 289.308594 280.5625 275.871094 280.574219 274.476562 C 280.640625 266.246094 278.261719 257.613281 274.746094 250.21875 C 273.761719 248.320312 272.714844 246.597656 271.546875 244.8125 C 266.050781 236.535156 271.625 252.882812 271.917969 254.332031 C 272.164062 255.554688 272.332031 256.726562 272.488281 257.960938 C 272.800781 262.042969 273.164062 275.816406 270.003906 278.429688 C 268.300781 279.839844 268.953125 273.769531 268.988281 273.054688 C 269.003906 263 267.515625 256.785156 263.335938 247.671875 C 258.914062 238.273438 262.859375 255.332031 263.101562 257.027344 C 264.230469 265.253906 264.667969 279.113281 259.703125 286.09375 C 256.863281 289.824219 259.292969 277.785156 259.375 276.792969 C 260.289062 265.667969 257.5 255.960938 253.027344 245.90625 C 249.269531 238.175781 252.289062 252.976562 252.453125 254.226562 C 253.03125 263.039062 251.796875 282.238281 246.382812 289.222656 C 244.230469 292 243.210938 291.085938 243.742188 287.855469 C 244.257812 284.722656 244.878906 283.457031 244.996094 280.011719 C 245.34375 269.621094 242.359375 256.722656 240.289062 246.441406 C 239.996094 244.96875 239.679688 243.523438 239.335938 242.0625 C 239.078125 241.023438 238.820312 239.988281 238.570312 238.949219 C 237.863281 235.128906 239.558594 238.109375 240.476562 237.949219 C 241.492188 235.90625 238.542969 232.890625 239.199219 231.585938 C 240.238281 230.742188 243.136719 234.914062 244.128906 234.535156 C 245.335938 234.074219 240.992188 226.652344 240.582031 225.652344 C 238.664062 220.964844 245.71875 228.382812 246.578125 228.609375 C 248.109375 229.011719 244.53125 222.550781 244.925781 221.394531 C 245.617188 220.226562 246.554688 220.925781 247.585938 221.511719 C 252.941406 224.410156 248.410156 220.101562 253.105469 218.921875 C 255.867188 218.226562 258.144531 218.1875 261.097656 217.234375 C 274.761719 211.355469 277.367188 202.078125 279.457031 188.394531 C 280.136719 183.730469 279.6875 176.199219 282.847656 173.449219 C 284.316406 172.382812 284.949219 172.113281 286.441406 171.308594 C 287.871094 170.535156 287.707031 168.769531 287.789062 167.242188 C 287.972656 164.300781 288.785156 158.4375 285.726562 156.746094 C 284.015625 155.800781 281.128906 155.460938 279.171875 155.183594 C 278.449219 155.089844 277.726562 155.003906 277.003906 154.90625 L 276.652344 154.859375 C 272.777344 154.300781 268.90625 153.746094 265.03125 153.1875 C 263.144531 152.953125 261.074219 153.0625 259.261719 152.761719 C 256.480469 152.296875 256.21875 152.53125 253.753906 152.328125 C 249.746094 151.996094 244.96875 152.023438 240.820312 152.074219 L 222.050781 153.964844 L 215.203125 155.378906 C 211.894531 156.179688 208.320312 156.75 205.164062 157.730469 C 199.058594 159.628906 193.390625 161.640625 186.867188 161.640625 C 180.613281 161.640625 175.875 159.398438 170.136719 157.96875 C 169 157.6875 168.25 157.402344 166.882812 157.09375 C 161.234375 155.792969 155.707031 154.429688 149.964844 153.550781 C 141.648438 152.324219 135.035156 151.910156 126.621094 152.15625 C 121.652344 152.304688 116.714844 152.671875 111.765625 153.15625 C 107.746094 153.566406 90.765625 154.957031 88.730469 157.652344 C 86.996094 159.945312 87.261719 166.285156 88.105469 168.949219 C 88.449219 169.929688 88.785156 170.46875 89.476562 171.230469 C 91.679688 173.390625 93.714844 173.402344 94.769531 177.175781 C 95.042969 178.160156 95.117188 178.96875 95.203125 179.972656 C 95.367188 184.464844 95.828125 188.554688 96.5625 192.816406 C 96.78125 193.921875 97.136719 195.277344 97.390625 196.410156 C 100.453125 208.523438 106.707031 216.054688 119.304688 218.5 C 120.53125 218.726562 123.402344 219.140625 124.144531 220.1875 C 124.394531 220.839844 123.746094 220.820312 124.421875 221.957031 C 125.371094 223.078125 128.808594 219.503906 130.101562 220.730469 C 131.453125 222.015625 126.117188 229.183594 130.382812 226.675781 C 134.28125 224.382812 135.800781 222.554688 132.746094 228.457031 C 131.957031 229.976562 128.351562 236.003906 132.9375 232.769531 C 136.144531 230.503906 136.285156 230.054688 134.914062 234.246094 C 132.96875 240.171875 136.019531 235.503906 136.140625 237.816406 L 136.15625 238.058594 L 136.089844 238.941406 C 135.84375 240.761719 135.386719 242.585938 135.105469 244.417969 C 134.421875 249.5 133.796875 254.03125 132.832031 259.089844 C 132.109375 262.867188 131.359375 266.632812 130.644531 270.410156 L 130.558594 270.863281 C 129.679688 277.742188 129.308594 287.632812 134.179688 293.160156 C 136.234375 295.21875 136.367188 293.175781 136.300781 291.332031 C 136.109375 287.945312 133.902344 274.53125 138.082031 286.878906 C 139.707031 291.6875 144.40625 309.070312 148.710938 310.167969 L 148.878906 310.097656 C 150.785156 309.019531 145.445312 296.355469 151.519531 305.722656 C 157.652344 314.613281 163.726562 320.179688 167.128906 330.925781 C 168.847656 336.78125 164.453125 332.0625 162.800781 330.484375 C 159.347656 327.238281 158.167969 325.171875 155.382812 321.597656 C 150.886719 315.835938 153.070312 324.753906 153.699219 326.738281 C 154.113281 327.898438 154.546875 329.003906 154.941406 330.179688 C 155.90625 333.523438 152.445312 329.949219 151.707031 329.25 C 146.378906 323.78125 145.117188 321.523438 141.703125 314.828125 C 138.457031 309.003906 139.109375 313.867188 139.40625 317.074219 C 139.550781 318.6875 139.699219 320.136719 139.945312 321.746094 C 140.546875 325.175781 140.0625 325.308594 137.972656 322.511719 C 133.335938 315.253906 131.347656 309.945312 128.332031 302.03125 C 124.929688 293.101562 126.464844 303.5625 126.765625 306.152344 C 127.015625 308.339844 127.339844 310.496094 127.710938 312.667969 C 128.707031 318.367188 126.796875 315.324219 124.8125 312.511719 C 118.460938 303.335938 114.609375 295.726562 111.625 284.929688 C 109.914062 278.074219 109.765625 272.53125 110.113281 265.535156 C 110.136719 265.074219 110.15625 264.617188 110.171875 264.160156 C 110.261719 262.265625 110.761719 259.398438 111.089844 257.464844 C 111.308594 256.488281 112.832031 250.511719 112.164062 250.074219 L 112.015625 250.039062 C 110.699219 250.425781 106.707031 259.792969 106.058594 261.539062 L 105.738281 262.433594 C 105.300781 263.839844 105.015625 265.078125 104.800781 266.53125 C 104.496094 268.792969 103.960938 270.84375 103.980469 273.203125 C 103.996094 275.058594 103.722656 276.074219 103.722656 278.109375 C 103.792969 283.203125 104.289062 286.742188 105.046875 291.726562 C 106.171875 299.152344 102.09375 290.902344 101.128906 289.085938 C 99.992188 286.953125 99.0625 284.933594 98.253906 282.65625 L 98.105469 282.222656 C 97.097656 279.148438 96.570312 276.183594 96.21875 272.976562 C 96.066406 271.464844 95.757812 270.40625 95.71875 268.8125 C 95.742188 265.738281 95.980469 263.148438 96.167969 260.117188 C 96.675781 252 93.386719 262.207031 92.882812 263.863281 C 92.519531 265.0625 92.15625 266.257812 91.773438 267.453125 C 91.058594 271.742188 91.25 274.496094 91.117188 278.695312 C 90.765625 289.734375 86.371094 271.578125 86.089844 269.933594 C 85.386719 265.863281 85.496094 262.132812 85.804688 258.039062 C 86.109375 254.804688 86.675781 251.601562 87.410156 248.4375 L 87.515625 247.980469 C 87.902344 246.359375 88.320312 244.753906 88.746094 243.144531 C 91.890625 231.40625 83.914062 247.152344 82.949219 249.792969 C 82.039062 252.285156 81.421875 254.742188 80.886719 257.335938 C 80.28125 264.128906 79.410156 269.324219 80.265625 276.238281 C 80.683594 279.609375 81.824219 288.101562 78.15625 279.425781 C 74.898438 271.171875 74.449219 264.648438 74.554688 255.890625 C 74.730469 248.148438 75.992188 243.386719 77.785156 236.003906 C 80.109375 226.4375 73.023438 240.375 72.390625 241.726562 C 70.039062 246.929688 68.714844 252.164062 68.601562 257.878906 C 68.566406 259.722656 68.574219 261.53125 68.488281 263.378906 C 68.179688 269.269531 66.039062 260.410156 65.835938 259.355469 C 63.914062 248.546875 64.425781 238.585938 67.503906 228.042969 C 67.707031 227.363281 67.917969 226.6875 68.132812 226.011719 C 70.535156 218.617188 67.289062 223.71875 65.5 226.683594 C 61.886719 233.132812 61.707031 235.492188 59.667969 242.230469 C 57.855469 247.644531 58.824219 237.820312 58.875 237.148438 C 58.992188 235.617188 59.128906 234.078125 59.292969 232.550781 C 60.097656 227.140625 61.554688 222.890625 63.8125 217.933594 L 64.035156 217.457031 C 66.003906 213.242188 68.378906 209.257812 71.300781 205.636719 C 73.839844 202.527344 76.703125 199.671875 79.542969 196.851562 C 83.367188 193.085938 85.710938 190.027344 78.351562 194.042969 C 73.382812 196.75 70.003906 200.265625 66.296875 204.4375 C 64.523438 206.472656 62.800781 208.554688 61.023438 210.59375 C 54.789062 217.503906 59.792969 207.429688 60.828125 205.332031 C 63.3125 200.40625 64.972656 198.707031 68.1875 194.480469 C 72.523438 188.203125 66.945312 192.839844 64.839844 194.484375 C 64.398438 194.824219 63.964844 195.167969 63.527344 195.511719 C 61.039062 197.464844 58.667969 199.476562 56.234375 201.484375 C 53.519531 203.726562 52.769531 203.300781 54.511719 200.28125 C 60.878906 189.464844 68.699219 184.667969 76.296875 175.476562 C 85.9375 163.8125 77.390625 169.800781 71.5 173.746094 C 66.308594 177.226562 61.582031 181.015625 67.71875 171.203125 C 72.246094 163.960938 78.296875 159 84.238281 153.03125 C 90.460938 146.742188 80.597656 152.367188 78.71875 153.355469 C 75.109375 155.25 71.734375 157.339844 68.207031 159.25 C 62.40625 162.164062 67.746094 156.480469 69.019531 155.074219 C 70.457031 153.484375 72.09375 151.761719 73.667969 150.304688 C 79.359375 145.359375 85.777344 141.847656 92.054688 137.761719 C 97.777344 133.984375 92.554688 135.304688 89.65625 135.972656 C 83.664062 137.414062 80.199219 138.894531 74.609375 141.242188 C 66.664062 144.585938 77.140625 135.894531 78.3125 134.992188 C 86.707031 129.597656 90.566406 129.054688 99.566406 125.933594 C 110.328125 122.203125 99.082031 122.949219 95.269531 123.027344 C 94.222656 123.046875 86.367188 123.367188 86.5 121.953125 C 86.667969 120.144531 94.398438 117.804688 96.234375 117.378906 C 101.921875 116.058594 106.785156 115.914062 112.570312 115.78125 L 113.148438 115.769531 C 130.015625 115.375 100.496094 111.058594 114.058594 110.546875 C 122.847656 110.214844 132.203125 112.347656 140.355469 115.546875 C 150.175781 119.734375 156.105469 124.78125 164.878906 130.210938 C 179.585938 139.316406 161.367188 121.1875 158.957031 119.210938 C 158.285156 118.664062 152.8125 114.742188 153.492188 113.96875 C 154.449219 112.878906 163.472656 116.578125 165.195312 117.511719 C 172.046875 121.59375 173.144531 123.820312 177.796875 129.878906 C 180.234375 133.054688 180.8125 131.660156 180.664062 128.308594 C 180.492188 124.394531 177.625 121.777344 177.617188 119.570312 C 178.484375 119.277344 181.949219 123.992188 182.535156 125.039062 C 184.957031 129.398438 185.027344 134.195312 186.355469 138.792969 C 187.910156 142.777344 188.5625 139.953125 189.125 137.507812 C 190.199219 132.867188 190.8125 124.53125 194.832031 121.480469 C 197.421875 119.515625 194.964844 125.144531 194.722656 125.917969 C 194.132812 127.816406 193.363281 135.355469 196.515625 130.359375 C 198.234375 127.632812 198.664062 126.601562 201.003906 124.164062 C 202.625 122.476562 204.355469 121.007812 206.207031 119.574219 C 207.148438 118.914062 208.089844 118.332031 209.082031 117.75 Z M 310.6875 94.628906 C 317.757812 94.800781 312.53125 93.53125 314.082031 91.855469 C 316.621094 89.78125 324.804688 95.777344 326.289062 98 C 327.128906 99.429688 325.878906 99.457031 324.535156 99.921875 C 321.65625 100.976562 323.019531 101.09375 325.296875 102.070312 C 329.96875 104.121094 333.707031 107.132812 334.761719 112.386719 C 335.332031 115.222656 332.847656 111.972656 332.148438 111.265625 C 328.398438 107.640625 329.148438 110.324219 330.253906 113.394531 C 331.730469 117.609375 333.179688 123.46875 332.105469 127.898438 C 331.101562 132.027344 329.148438 123.847656 327.480469 122.902344 C 326.398438 122.992188 326.796875 125.140625 326.832031 125.886719 C 327.015625 130.046875 327.625 131.125 326.558594 135.472656 C 324.980469 140.417969 320.628906 148.367188 314.964844 149.195312 C 313.210938 149.453125 314.042969 148.257812 314.585938 147.386719 C 315.144531 146.574219 315.828125 145.820312 316.441406 145.042969 C 319.046875 141.503906 321.867188 136.109375 322.863281 131.824219 C 323.046875 130.910156 323.207031 129.914062 322.53125 129.1875 C 321.222656 128.160156 318.128906 133.382812 316.296875 133.742188 C 314.277344 134.136719 320.707031 126.054688 317.398438 126.542969 C 316.042969 126.746094 313.730469 128.003906 315.9375 125.105469 C 318.222656 122.097656 320.101562 120.46875 319.953125 116.339844 L 319.933594 115.839844 C 318.425781 113.679688 312.425781 114.664062 311.429688 112.605469 C 313.410156 111.199219 318.3125 111.140625 313.210938 107.96875 C 308.085938 105.023438 302.628906 105.203125 297.003906 106.414062 C 295.019531 106.839844 293.121094 107.613281 291.433594 108.738281 C 290.699219 109.261719 289.972656 109.808594 289.242188 110.335938 C 287.582031 111.535156 285.316406 112.816406 283.300781 111.773438 C 281.339844 110.757812 280.128906 109.210938 277.632812 108.140625 C 274.28125 106.703125 267.351562 105.382812 273.917969 101.558594 C 279.292969 98.515625 284.917969 96.53125 290.34375 93.371094 C 295.6875 90.261719 305.515625 84.433594 311.777344 87.296875 C 315.675781 89.082031 308.234375 91.195312 306.980469 91.871094 C 303.296875 93.851562 305.753906 94.25 308.25 94.480469 C 309.058594 94.546875 309.875 94.582031 310.6875 94.628906 Z M 81.332031 91.203125 C 83.558594 92.621094 84.75 93.4375 87.195312 94.601562 C 91.03125 96.433594 100.117188 100.222656 102.6875 103.207031 C 104.671875 105.695312 101.03125 106.621094 99.144531 107.425781 C 96.316406 108.628906 95.089844 109.714844 92.605469 111.167969 C 87.488281 114.164062 87.449219 110.539062 82.734375 108.140625 C 77.167969 105.421875 67.859375 104.507812 62.257812 107.484375 C 61.398438 107.96875 60.898438 108.390625 60.230469 109.105469 C 57.125 112.683594 65.832031 111.40625 64.152344 112.71875 C 62.5625 113.960938 54.566406 114.15625 54.511719 116.222656 C 54.460938 117.957031 57.269531 121.960938 58.304688 123.5 C 58.734375 124.148438 59.152344 124.796875 59.570312 125.453125 C 62.742188 130.578125 54.558594 122.273438 56.867188 127.832031 C 58.042969 130.664062 61.054688 136.476562 55.800781 131.398438 C 53.273438 128.957031 51.628906 127.300781 52.742188 132.375 C 54.277344 139.386719 56.605469 141.433594 60.363281 147.113281 C 63.640625 152.324219 56.199219 146.996094 55.140625 146.140625 C 49.1875 140.535156 47.449219 135.0625 47.710938 127.003906 C 47.847656 123.179688 47.804688 121.703125 45.621094 126.1875 C 45.101562 127.296875 43.945312 130.277344 43.273438 131.058594 C 41.601562 125.972656 42.714844 117.523438 44.992188 112.71875 C 49.316406 103.59375 40.542969 115.121094 40.089844 113.101562 C 39.808594 111.855469 43.050781 106.804688 44.144531 105.59375 C 46.269531 103.25 48.710938 102.316406 51.6875 101.476562 C 52.121094 101.359375 52.515625 101.273438 52.859375 100.972656 C 51.625 99.492188 44.445312 99.136719 54.632812 93.382812 C 55.621094 92.820312 60.570312 90.339844 61.382812 91.832031 C 62.171875 93.28125 56.074219 95.515625 68.28125 94.609375 C 71.050781 94.402344 72.039062 93.992188 69 92.34375 C 67.75 91.667969 61.726562 89.214844 61.390625 88.269531 C 60.816406 86.648438 69.972656 86.933594 71.03125 87.046875 C 74.933594 87.550781 78.019531 89.210938 81.332031 91.203125 Z M 123.886719 83.890625 C 122.867188 83.726562 120.351562 83.339844 119.472656 82.867188 C 120.082031 82.007812 122.972656 82.257812 123.964844 82.273438 C 131.359375 82.417969 139.003906 83.328125 146.449219 83.75 C 163.75 84.746094 180.195312 85.722656 197.574219 85.59375 L 198.363281 85.585938 C 198.425781 85.585938 217.523438 85.292969 212.46875 86.960938 C 208.976562 88.117188 198.054688 88.167969 193.628906 88.441406 C 181.636719 89.175781 166.980469 88.179688 154.90625 87.230469 C 144.515625 86.410156 134.191406 85.535156 123.886719 83.890625 Z M 122.027344 78.21875 C 121.621094 78.152344 118.949219 77.925781 119.445312 76.972656 C 121.253906 75.335938 134.8125 76.722656 138.144531 76.902344 C 150.4375 77.585938 162.429688 78.289062 174.753906 78.695312 C 179.78125 78.859375 184.804688 78.980469 189.835938 79.050781 C 195.40625 79.121094 200.972656 79.207031 206.542969 79.359375 C 214.53125 79.601562 218.855469 80.238281 207.902344 81.339844 C 205.152344 81.617188 202.941406 82.003906 200.089844 82.101562 C 182.632812 82.640625 166.832031 82.328125 149.429688 81.035156 C 143.339844 80.585938 137.300781 80.128906 131.230469 79.441406 C 129.238281 79.210938 127.25 78.960938 125.261719 78.695312 C 124.183594 78.546875 123.105469 78.386719 122.027344 78.21875 Z M 228.21875 91.433594 C 229.210938 91.257812 229.636719 91.183594 230.757812 91.136719 C 233.410156 91.023438 253.726562 88.671875 257.816406 87.722656 C 259.292969 87.382812 261.25 87.277344 262.933594 86.902344 L 273.003906 84.839844 C 275.007812 84.394531 286.105469 82.070312 279.0625 79.519531 C 275.117188 78.09375 270.230469 78.496094 266.507812 77.339844 L 266.054688 77.144531 C 264.890625 76.5 265.707031 75.683594 266.902344 75.492188 C 270.566406 75.351562 289.789062 77.339844 287.179688 83.460938 C 285.882812 86.496094 279.910156 87.972656 276.984375 88.746094 C 276.09375 88.988281 275.214844 89.203125 274.316406 89.410156 L 273.394531 89.617188 L 243.355469 94.4375 C 241.1875 94.964844 239.171875 94.78125 236.804688 95.117188 C 232.273438 95.765625 231.199219 95.746094 227.160156 96.058594 C 226.34375 96.121094 224.941406 96.402344 224.238281 96.492188 C 221.671875 96.785156 218.859375 96.746094 216.203125 96.941406 C 204.78125 97.785156 193.402344 97.796875 181.957031 97.855469 C 172.816406 97.433594 163.675781 97.03125 154.539062 96.585938 C 152.535156 96.449219 150.875 96.085938 148.796875 96.015625 C 145.679688 95.90625 142.1875 95.398438 139.035156 95.097656 C 133.824219 94.59375 128.699219 93.625 123.46875 93.171875 C 122.457031 93.089844 120.8125 92.664062 119.667969 92.492188 C 117.007812 92.109375 113.632812 91.753906 111.078125 91.226562 C 105.757812 90.125 91.242188 88.085938 88.460938 83.851562 C 87.808594 82.863281 87.929688 82.082031 88.46875 81.09375 C 91.554688 77.488281 101.933594 75.40625 106.59375 75.40625 C 112.636719 75.753906 109.273438 77.550781 105.351562 77.925781 C 83.25 80.035156 98.574219 84.210938 109.09375 86.15625 C 116.011719 87.429688 123.769531 88.804688 130.753906 89.382812 C 133.332031 89.625 135.984375 90.007812 138.601562 90.269531 C 151.804688 91.585938 165.25 92.652344 178.507812 93.128906 C 184.367188 93.339844 190.554688 93.320312 196.417969 93.195312 C 204.644531 92.988281 212.722656 92.71875 220.921875 91.976562 C 222.511719 91.835938 224.203125 91.773438 225.835938 91.636719 C 226.628906 91.570312 227.421875 91.5 228.21875 91.433594 Z M 201.152344 72.765625 C 204.667969 72.886719 209.425781 72.972656 212.832031 73.476562 C 216.167969 73.964844 211.5 74.609375 210.84375 74.675781 C 207.066406 75.050781 202.851562 75.292969 199.042969 75.523438 C 183.542969 76.34375 166.527344 75.835938 151.011719 74.878906 C 149.414062 74.78125 147.828125 74.660156 146.230469 74.527344 C 142.613281 74.191406 138.953125 73.964844 135.308594 73.636719 C 134.007812 73.519531 116.753906 72.777344 120.492188 70.6875 C 122.890625 69.351562 137.007812 70.660156 140.839844 70.863281 C 155.25 71.601562 170.378906 72.757812 184.738281 72.917969 C 187.898438 72.953125 191.035156 72.914062 194.191406 72.824219 C 196.527344 72.757812 198.816406 72.710938 201.152344 72.765625 Z M 193.003906 33.925781 C 194.265625 34.09375 195.511719 34.273438 196.769531 34.472656 C 202.410156 35.460938 198.90625 36.519531 195.683594 36.867188 C 195.011719 36.890625 183.820312 37.304688 185.875 39.378906 C 187.847656 41.371094 198.152344 40.164062 200.59375 42.007812 C 199.867188 42.804688 195.097656 43.230469 194.074219 43.359375 L 192.960938 43.484375 C 192.226562 43.527344 180.171875 43.917969 182.664062 46.101562 C 184.109375 47.367188 189.648438 47.074219 191.503906 47.015625 L 191.746094 47.011719 C 192.1875 47.027344 209.964844 47.542969 202.351562 48.808594 C 193.148438 50.277344 185.554688 49.824219 176.511719 50.234375 C 170.308594 50.519531 171.253906 52.679688 177.054688 53.0625 C 178.714844 53.171875 180.386719 53.160156 182.050781 53.183594 L 182.351562 53.191406 L 182.675781 53.203125 C 187.589844 53.417969 223.53125 54.503906 196.332031 56.34375 C 188.871094 56.808594 181.855469 56.722656 174.414062 56.707031 C 168.804688 56.789062 168.414062 58.945312 174.625 59.472656 C 178.070312 59.765625 181.609375 59.644531 185.066406 59.621094 C 186.78125 59.625 187.742188 59.898438 189.703125 59.890625 C 189.984375 59.894531 213.371094 60.058594 207.296875 61.824219 C 204.367188 62.675781 195.050781 63.105469 191.636719 63.152344 C 187.644531 63.152344 170.441406 62.277344 167.949219 63.707031 C 165.308594 65.222656 170.925781 65.917969 171.515625 65.953125 C 174.554688 66.148438 178.714844 65.992188 181.917969 66.019531 C 184.523438 66.042969 186.976562 66.09375 189.578125 66.289062 C 192.796875 66.554688 196.035156 66.597656 199.257812 66.605469 C 199.769531 66.597656 211.378906 66.359375 209.492188 67.769531 C 208.550781 68.476562 202.574219 68.890625 201.046875 69.035156 L 200.585938 69.078125 L 199.679688 69.167969 C 180.027344 70.785156 160.378906 68.578125 140.722656 68.15625 C 138.316406 68.113281 135.207031 67.796875 132.769531 67.609375 C 131.082031 67.480469 122.8125 66.914062 121.664062 66.175781 C 120.722656 65.328125 121.554688 64.257812 122.8125 64.082031 C 125.0625 63.773438 130.675781 64.117188 133.195312 64.203125 C 133.808594 64.222656 134.421875 64.242188 135.03125 64.257812 C 135.945312 64.277344 136.855469 64.296875 137.769531 64.316406 C 139.78125 64.476562 165.519531 66.023438 162.699219 63.832031 C 161.539062 62.933594 150.601562 62.566406 148.390625 62.484375 C 145.117188 62.269531 141.835938 62.132812 138.558594 61.953125 C 137.628906 61.902344 136.707031 61.839844 135.777344 61.761719 L 135.308594 61.722656 C 133.3125 61.539062 131.378906 61.371094 129.371094 61.308594 C 128.234375 61.285156 123.417969 61.378906 122.890625 60.273438 C 122.300781 59.03125 124.300781 57.996094 125.417969 57.839844 C 131.316406 57.503906 137.390625 58.519531 142.988281 58.09375 C 147.875 57.726562 144.976562 56.261719 142.09375 55.816406 C 137.054688 55.085938 132.15625 55.570312 127.128906 55.035156 C 125.941406 54.898438 124.121094 54.714844 124.710938 53 C 126.054688 50.730469 128.332031 51.246094 130.6875 51.371094 C 131.238281 51.402344 143.109375 52.058594 141.363281 50.339844 C 139.886719 48.886719 129.34375 49.695312 127.546875 48.820312 C 125.421875 47.371094 127.066406 45.023438 129.796875 44.894531 C 135.058594 44.640625 129.3125 42.683594 129.183594 42.566406 C 127.558594 41.042969 133.363281 29.492188 134.535156 27.613281 C 136.945312 23.746094 139.617188 21.113281 143.910156 19.460938 C 164.046875 12.433594 174.492188 33.515625 200.328125 24.703125 C 207.46875 22.152344 220.238281 16.285156 227.617188 18.851562 C 231.90625 20.558594 223.613281 22.273438 222.214844 22.765625 C 207.855469 27.886719 204.324219 30.859375 188.242188 31.074219 C 175.492188 31.242188 187.964844 33.1875 192.082031 33.789062 Z M 47.519531 86.964844 C 45.183594 89.210938 42.542969 92.75 40.460938 95.359375 C 35.695312 101.617188 33.976562 109.476562 33.195312 117.15625 C 33.125 117.945312 33.09375 118.722656 33.070312 119.519531 C 32.90625 130.964844 37.375 143.207031 45.253906 151.558594 C 46.34375 152.675781 47.367188 153.574219 48.558594 154.578125 C 50.730469 156.273438 52.03125 157.078125 54.402344 158.433594 C 59.511719 161.941406 56.367188 162.746094 53.445312 167.039062 C 51.214844 170.316406 46.382812 179.917969 54.949219 175.765625 C 61.128906 172.769531 57.8125 179.097656 55.710938 181.703125 C 53.671875 184.230469 51.636719 186.074219 49.574219 188.804688 C 48.976562 189.59375 48.386719 190.390625 47.800781 191.191406 C 43.050781 197.792969 39.472656 206.0625 39.175781 214.277344 C 39.257812 219.351562 40.976562 218.632812 44.226562 215.910156 C 47.421875 213.226562 49.664062 211.171875 47.84375 217.027344 C 45.578125 224.316406 43.589844 227.503906 42.566406 235.449219 C 41.628906 242.714844 41.132812 251.589844 43.863281 258.511719 C 45.824219 262.832031 46.808594 257.425781 47.441406 255.46875 C 48.859375 251.378906 51.324219 244.75 51.644531 254.082031 C 51.628906 256.316406 51.488281 271.542969 53.867188 271.816406 L 54.1875 271.761719 L 54.539062 271.523438 L 54.9375 271.027344 C 55.285156 270.367188 58.164062 264.28125 58.894531 266.910156 C 59.386719 268.671875 59.4375 272.210938 59.527344 274.167969 C 59.753906 276.894531 60.199219 279.273438 60.835938 281.929688 C 61.589844 284.96875 62.570312 287.910156 63.605469 290.863281 C 65.402344 295.339844 69.914062 304.273438 73.972656 306.816406 C 77.601562 309.085938 75.039062 302.582031 74.710938 301.214844 C 73.53125 296.296875 72.804688 290.65625 77.296875 298.996094 C 78.445312 301.128906 80.46875 304.976562 82.820312 305.902344 C 85.1875 306.832031 84.421875 302.734375 84.988281 301.703125 L 85.140625 301.730469 L 85.34375 301.9375 C 85.625 302.414062 86.027344 303.667969 86.199219 304.164062 C 88.074219 309.449219 93.179688 320.082031 98.238281 322.683594 C 102.140625 324.6875 98.21875 316.4375 99.160156 315.972656 C 99.972656 316.578125 102.257812 321.796875 103.121094 323.296875 C 106.472656 328.90625 111.773438 336.496094 117.773438 339.414062 C 121.691406 341.320312 118.570312 336.695312 117.898438 335.210938 C 116.238281 331.542969 112.46875 319.449219 119.53125 330.054688 C 123.535156 336.066406 128.222656 342.109375 134.175781 346.304688 C 137.648438 348.464844 146.308594 353.710938 150.304688 353.324219 C 152.679688 353.09375 149.023438 349.835938 148.238281 348.839844 C 146.894531 347.140625 138.3125 336.449219 146.597656 341.589844 C 151.011719 344.328125 154.207031 346.628906 158.109375 350.007812 C 158.730469 350.546875 171.605469 362.070312 170.734375 357.355469 C 170.3125 355.089844 166.578125 348.203125 173.621094 352.785156 C 178 355.636719 180.15625 358.703125 183.125 362.859375 C 189.082031 371.210938 189.691406 364.96875 194.585938 358.933594 C 197.226562 355.679688 199.839844 353.5 203.617188 351.667969 C 209.773438 349.230469 199.113281 362.4375 210.085938 355.492188 C 215.796875 351.878906 220.996094 346.207031 226.96875 342.167969 C 232.800781 338.492188 230.394531 343.589844 228.421875 346.570312 C 226.304688 349.761719 221.53125 355.179688 229.820312 352.019531 C 239.011719 348.507812 244.601562 344.15625 250.644531 336.5 C 252.492188 334.152344 254.265625 331.734375 256.089844 329.367188 C 262.691406 321.3125 259.140625 329.644531 257.652344 333.539062 C 255.835938 338.285156 253.433594 343.144531 260.394531 337.238281 C 269 329.773438 268.277344 328.722656 273.722656 319.65625 C 278.636719 311.480469 272.324219 326.644531 280.402344 319.046875 C 284.402344 315.28125 286.027344 310.707031 288.417969 305.984375 C 291.492188 299.921875 288.710938 311.988281 295.183594 303.335938 L 296.527344 301.542969 C 300.566406 295.410156 302.257812 289.628906 300.21875 301.121094 L 299.894531 302.910156 C 299.050781 307.546875 299.691406 308.550781 303.332031 304.566406 C 312.03125 293.84375 314.324219 286.171875 315.558594 272.613281 C 316.988281 256.878906 322.542969 286.042969 323.363281 258.265625 C 323.394531 256.769531 323.242188 248.785156 324.0625 247.855469 C 326.171875 246.796875 329.304688 266.4375 331.53125 257.554688 L 331.886719 256.148438 C 332.53125 253.277344 332.992188 249.429688 333.117188 246.460938 C 333.152344 244.578125 333.09375 242.6875 333.035156 240.800781 L 333.003906 239.898438 C 332.625 231.324219 330.914062 228.128906 328.558594 220.324219 C 324.457031 206.746094 333.6875 220.851562 335.261719 217.53125 C 336.402344 215.128906 334.6875 206.632812 333.738281 203.886719 C 332.300781 199.738281 330.175781 195.976562 327.910156 192.234375 C 326.832031 190.484375 325.714844 188.855469 324.492188 187.203125 C 323.835938 186.480469 311.851562 173.3125 317.933594 175.253906 C 318.035156 175.285156 318.136719 175.316406 318.238281 175.347656 C 319.253906 175.695312 325.320312 178.371094 325.21875 175.929688 C 325.125 173.738281 321.148438 167.28125 319.734375 165.160156 C 318.953125 163.972656 316.914062 160.621094 318.183594 159.34375 C 319.109375 158.417969 321.375 157.636719 322.632812 156.949219 L 323.640625 156.339844 C 324.300781 155.898438 324.949219 155.453125 325.601562 155.007812 C 327.898438 153.140625 328.699219 152.273438 330.75 150.082031 C 336.050781 144.3125 340.167969 135.820312 341.257812 128.050781 C 341.578125 125.597656 342.046875 123.152344 342.046875 120.578125 C 341.96875 113.519531 340.867188 109.175781 338.617188 102.5625 C 338.433594 102.015625 338.324219 101.578125 338.09375 101.03125 C 337.617188 99.964844 337.019531 98.796875 336.449219 97.769531 L 332.644531 92.015625 C 326.621094 84.429688 317.335938 78.710938 307.476562 78.480469 C 305.742188 78.488281 299.976562 78.839844 298.832031 78.621094 C 296.417969 78.15625 295.367188 75.679688 293.464844 74.128906 L 293.015625 73.761719 C 290.851562 72.105469 288.367188 71.160156 285.820312 70.265625 C 279.898438 68.269531 273.527344 67.929688 267.355469 67.257812 C 262.390625 66.535156 263.238281 64.78125 261.960938 60.226562 C 260.027344 53.339844 257.746094 45.894531 255.542969 39.078125 C 252.332031 29.144531 247.742188 17.714844 237.886719 12.777344 L 237.179688 12.421875 C 226.777344 7.667969 216.722656 9.027344 206.535156 13.472656 C 198.972656 16.769531 192.1875 19.179688 183.730469 18.113281 C 171.230469 16.332031 164.371094 8.433594 149.636719 9.566406 C 138.617188 10.558594 130.714844 15.34375 125.652344 25.273438 C 121.0625 34.28125 116.65625 48.269531 114.007812 58.144531 C 113.53125 59.921875 113.058594 61.699219 112.578125 63.472656 C 111.296875 68.167969 109.941406 67.371094 105.632812 67.441406 C 99.394531 67.777344 89.25 70.019531 83.792969 73.050781 C 81.4375 74.488281 80.355469 75.765625 78.539062 77.75 C 77.097656 79.320312 76.210938 78.613281 74.058594 78.507812 C 68.949219 78.253906 61.964844 79.195312 57.171875 80.992188 C 53.484375 82.421875 50.511719 84.394531 47.519531 86.964844 Z M 47.519531 86.964844 "/></g></svg>