<?xml version="1.0" standalone="no"?>
<!DOCTYPE svg PUBLIC "-//W3C//DTD SVG 20010904//EN"
 "http://www.w3.org/TR/2001/REC-SVG-20010904/DTD/svg10.dtd">
<svg version="1.0" xmlns="http://www.w3.org/2000/svg"
 width="225.000000pt" height="225.000000pt" viewBox="0 0 225.000000 225.000000"
 preserveAspectRatio="xMidYMid meet">
<metadata>
Created by potrace 1.16, written by Peter Selinger 2001-2019
</metadata>
<g transform="translate(0.000000,225.000000) scale(0.100000,-0.100000)"
fill="#000000" stroke="none">
<path d="M985 2051 c-84 -9 -128 -30 -144 -69 -10 -23 -11 -182 -8 -671 l5
-641 -31 -18 c-18 -9 -41 -19 -52 -22 -16 -5 -20 -14 -20 -45 0 -32 4 -40 20
-43 11 -2 25 -10 31 -17 5 -7 26 -17 45 -22 l34 -9 3 -122 c3 -120 3 -123 27
-132 16 -6 34 -6 50 0 24 9 25 13 25 95 0 65 3 85 14 85 7 0 28 3 45 6 l31 7
0 -115 c0 -120 6 -138 45 -138 39 0 45 18 45 134 l0 111 28 0 27 0 3 -90 c2
-49 8 -94 13 -100 13 -13 75 -11 93 4 12 10 16 32 16 93 0 78 0 79 23 72 38
-12 101 -45 125 -67 l22 -20 0 62 c0 38 -6 70 -15 85 -15 22 -14 24 10 40 21
14 25 24 25 69 0 29 -5 58 -12 65 -7 7 -34 12 -61 12 -96 0 -87 -68 -87 674 0
644 0 654 -21 679 -11 15 -37 31 -57 36 -53 13 -215 20 -297 12z"/>
</g>
</svg>
