<?xml version="1.0" standalone="no"?>
<!DOCTYPE svg PUBLIC "-//W3C//DTD SVG 20010904//EN"
 "http://www.w3.org/TR/2001/REC-SVG-20010904/DTD/svg10.dtd">
<svg version="1.0" xmlns="http://www.w3.org/2000/svg"
 width="512.000000pt" height="512.000000pt" viewBox="0 0 512.000000 512.000000"
 preserveAspectRatio="xMidYMid meet">
<metadata>
Created by potrace 1.16, written by Peter Selinger 2001-2019
</metadata>
<g transform="translate(0.000000,512.000000) scale(0.100000,-0.100000)"
fill="#000000" stroke="none">
<path d="M2372 5054 c-22 -15 -22 -18 -22 -260 l0 -244 -319 0 -319 0 -4 68
c-7 128 -75 203 -191 210 -77 4 -138 -24 -181 -86 -24 -34 -30 -54 -34 -116
l-5 -76 -63 0 c-56 0 -65 -3 -84 -27 -20 -26 -21 -35 -18 -261 3 -218 4 -235
22 -248 17 -12 116 -14 608 -14 l588 0 0 -205 0 -205 -160 0 -160 0 0 59 c0
105 -34 166 -114 206 -84 42 -165 28 -232 -39 -46 -46 -64 -93 -64 -173 l0
-53 -65 0 c-53 0 -66 -3 -75 -19 -14 -26 -14 -476 0 -502 10 -17 23 -19 163
-19 l152 0 278 -278 277 -277 0 -633 0 -632 -49 0 c-83 0 -81 12 -81 -407 l0
-363 -155 0 c-180 0 -238 -10 -302 -53 -71 -49 -104 -116 -111 -226 -4 -81 -3
-90 17 -110 l21 -21 870 0 870 0 21 21 c20 20 21 29 17 110 -7 110 -40 177
-111 226 -64 43 -122 53 -302 53 l-155 0 0 363 c0 419 2 407 -81 407 l-49 0 0
633 0 632 278 278 277 277 152 0 c140 0 153 2 163 19 14 26 14 476 0 502 -9
16 -22 19 -75 19 l-65 0 0 53 c0 80 -18 127 -64 173 -67 67 -148 81 -232 39
-80 -40 -114 -101 -114 -206 l0 -59 -160 0 -160 0 0 205 0 205 588 0 c492 0
591 2 608 14 18 13 19 30 22 248 3 226 2 235 -18 261 -19 24 -28 27 -84 27
l-63 0 -5 76 c-4 62 -10 82 -34 116 -43 62 -104 90 -181 86 -116 -7 -184 -82
-191 -210 l-4 -68 -319 0 -319 0 0 244 c0 242 0 245 -22 260 -18 13 -54 16
-188 16 -134 0 -170 -3 -188 -16z m278 -309 l0 -195 -90 0 -90 0 0 195 0 195
90 0 90 0 0 -195z m-1087 -67 c11 -14 17 -37 17 -74 l0 -54 -80 0 -80 0 0 35
c0 49 25 103 52 115 31 12 69 4 91 -22z m2082 22 c30 -12 55 -63 55 -115 l0
-35 -80 0 -80 0 0 51 c0 58 12 87 43 99 29 12 31 12 62 0z m215 -430 l0 -150
-1300 0 -1300 0 0 150 0 150 1300 0 1300 0 0 -150z m-1210 -475 l0 -205 -90 0
-90 0 0 205 0 205 90 0 90 0 0 -205z m-780 -55 c22 -12 40 -61 40 -111 l0 -39
-80 0 -80 0 0 57 c0 44 5 62 22 80 23 24 66 30 98 13z m1477 -12 c19 -18 23
-32 23 -80 l0 -58 -80 0 -80 0 0 39 c0 48 15 92 37 109 26 19 74 14 100 -10z
m183 -408 l0 -150 -970 0 -970 0 0 150 0 150 970 0 970 0 0 -150z m-1180 -455
c0 -102 -1 -185 -3 -185 -1 0 -85 83 -187 185 l-185 185 188 0 187 0 0 -185z
m300 -725 l0 -910 -90 0 -90 0 0 910 0 910 90 0 90 0 0 -910z m490 907 c0 -1
-83 -85 -185 -187 l-185 -185 0 188 0 187 185 0 c102 0 185 -1 185 -3z m-370
-2262 l0 -325 -210 0 -210 0 0 325 0 325 210 0 210 0 0 -325z m496 -471 c39
-19 74 -70 74 -108 l0 -26 -780 0 -780 0 0 26 c0 38 35 89 73 108 28 14 109
16 705 16 599 0 678 -2 708 -16z"/>
</g>
</svg>
